<?xml version="1.0" encoding="utf-8"?>
<!-- Generator: Adobe Illustrator 16.0.0, SVG Export Plug-In . SVG Version: 6.00 Build 0)  -->
<!DOCTYPE svg PUBLIC "-//W3C//DTD SVG 1.1 Tiny//EN" "http://www.w3.org/Graphics/SVG/1.1/DTD/svg11-tiny.dtd">
<svg version="1.1" baseProfile="tiny" id="Layer_1" xmlns="http://www.w3.org/2000/svg" xmlns:xlink="http://www.w3.org/1999/xlink"
	 x="0px" y="0px" width="22px" height="22px" viewBox="295 385 22 22" xml:space="preserve">
<path fill="#8892AB" d="M308.047,393.953c1.796,1.796,1.911,4.65,0.343,6.58c-0.22,0.272-0.098,0.136-2.986,3.023
	c-1.923,1.924-5.037,1.925-6.96,0c-1.924-1.922-1.924-5.036,0-6.96c1.152-1.152,1.822-1.825,2.229-2.231
	c0.262-0.262,0.714-0.083,0.72,0.288c0.007,0.448,0.063,0.894,0.167,1.33c0.034,0.142-0.01,0.291-0.113,0.394l-1.611,1.611
	c-1.152,1.152-1.156,3.02,0,4.177c1.152,1.152,3.02,1.156,4.176,0l2.643-2.643c1.15-1.151,1.153-3.025,0-4.177
	c-0.233-0.234-0.504-0.427-0.802-0.571c-0.163-0.079-0.252-0.255-0.23-0.434c0.047-0.391,0.221-0.77,0.521-1.069l0.154-0.154
	c0.128-0.127,0.323-0.162,0.484-0.081C307.237,393.267,307.666,393.572,308.047,393.953L308.047,393.953z M313.557,388.443
	c-1.924-1.925-5.037-1.923-6.96,0c-2.889,2.888-2.767,2.752-2.986,3.024c-1.569,1.929-1.454,4.784,0.343,6.58
	c0.381,0.381,0.81,0.687,1.267,0.916c0.161,0.08,0.356,0.046,0.483-0.081l0.154-0.154c0.3-0.299,0.474-0.678,0.521-1.068
	c0.022-0.18-0.068-0.355-0.23-0.435c-0.298-0.144-0.569-0.336-0.802-0.57c-1.152-1.152-1.15-3.025,0-4.176l2.643-2.644
	c1.157-1.156,3.024-1.152,4.177,0c1.156,1.157,1.151,3.024,0,4.176l-1.611,1.612c-0.104,0.103-0.147,0.252-0.113,0.394
	c0.105,0.436,0.161,0.882,0.167,1.33c0.006,0.37,0.458,0.55,0.721,0.288c0.406-0.406,1.077-1.079,2.229-2.231
	C315.481,393.479,315.48,390.365,313.557,388.443L313.557,388.443z"/>
</svg>
